<?xml version="1.0" standalone="no"?>
<!DOCTYPE svg PUBLIC "-//W3C//DTD SVG 20010904//EN"
 "http://www.w3.org/TR/2001/REC-SVG-20010904/DTD/svg10.dtd">
<svg version="1.0" xmlns="http://www.w3.org/2000/svg"
 width="800.000000pt" height="600.000000pt" viewBox="0 0 800.000000 600.000000"
 preserveAspectRatio="xMidYMid meet">

<g transform="translate(0.000000,600.000000) scale(0.100000,-0.100000)"
fill="#000000" stroke="none">
<path d="M0 3340 c0 -1948 3 -2660 11 -2660 6 0 28 8 48 19 48 25 237 111 244
111 3 0 56 24 119 54 62 30 174 81 248 114 74 33 173 78 220 100 47 21 128 58
180 82 52 23 133 60 178 81 46 22 85 39 87 39 2 0 60 27 130 60 70 33 128 60
130 60 2 0 81 36 176 80 94 44 173 80 176 80 2 0 24 -43 48 -95 25 -52 47 -95
50 -95 3 0 49 22 103 49 132 66 136 67 150 35 l12 -25 33 19 c17 10 69 41 115
68 177 104 164 92 191 174 23 72 24 91 30 420 3 199 10 351 16 360 13 19 25
448 18 608 l-6 124 -61 -7 c-34 -3 -72 -7 -85 -8 -14 -1 -36 -12 -50 -25 -19
-17 -26 -19 -33 -10 -5 9 -8 5 -10 -12 -4 -61 -16 267 -17 486 -1 187 2 244
12 252 7 6 64 12 130 13 l117 1 0 569 c0 483 2 575 15 605 8 20 12 41 8 47 -4
6 -1 7 7 2 10 -6 12 -3 8 12 -3 11 1 28 8 38 8 10 14 14 14 9 0 -6 -5 -15 -12
-22 -7 -7 -10 -12 -7 -12 3 0 27 20 53 45 26 24 64 49 83 56 24 7 31 14 23 19
-7 5 2 7 21 5 19 -1 38 0 43 2 15 10 296 11 302 2 7 -13 44 -11 44 2 0 6 10 9
23 8 45 -5 87 21 55 34 -10 4 -10 6 0 6 16 1 16 28 0 34 -7 2 4 8 25 12 34 7
37 10 37 41 0 33 -1 34 -40 34 l-40 0 0 40 c0 29 4 40 15 40 22 0 18 16 -9 38
-19 15 -25 30 -28 68 -3 49 -3 49 -40 52 l-38 3 0 -40 0 -41 -40 0 -40 0 0 40
0 40 -40 0 -40 0 0 40 0 40 -80 0 -80 0 0 71 0 71 40 -4 c26 -2 40 1 40 8 0 7
6 14 13 17 10 4 10 7 0 18 -7 7 -13 23 -13 36 0 20 -5 23 -40 23 -36 0 -40 -2
-40 -25 0 -22 -4 -25 -40 -25 -36 0 -40 3 -40 25 l0 25 -120 0 c-100 0 -120
-2 -120 -15 0 -8 -5 -15 -10 -15 -6 0 -13 7 -16 15 -5 13 -160 15 -1310 15
l-1304 0 0 -2660z m1849 2083 c19 -20 27 -38 26 -63 l0 -35 -117 -3 -118 -3 0
36 c0 72 28 93 123 94 51 1 62 -3 86 -26z m-1438 -113 c5 0 9 -4 9 -10 0 -5
-12 -10 -27 -10 -21 0 -24 3 -15 12 7 7 13 21 13 33 2 18 2 18 6 -2 2 -13 9
-23 14 -23z m1422 -732 c-2 -29 -6 -74 -9 -101 -8 -63 5 -77 68 -77 72 0 88
12 88 65 0 24 -4 47 -10 50 -5 3 -10 31 -10 61 0 48 2 54 20 54 27 0 101 -69
147 -138 l38 -57 0 -745 0 -745 -2 708 -3 707 -550 0 -550 0 0 23 c1 39 36
102 99 175 l62 72 307 0 308 0 -3 -52z m220 -393 c1 -6 -118 -11 -338 -13
-351 -3 -546 4 -510 19 30 12 844 6 848 -6z m-986 -87 c-2 -13 -4 -3 -4 22 0
25 2 35 4 23 2 -13 2 -33 0 -45z m983 -48 c7 -14 10 -168 9 -475 -1 -435 -2
-455 -19 -455 -14 0 -20 9 -23 33 l-4 32 -1 -33 c-2 -26 3 -35 18 -39 22 -6
26 -18 10 -28 -5 -3 -10 -1 -10 4 0 6 -10 11 -22 10 -13 0 -17 -3 -10 -6 45
-18 -32 -22 -393 -21 -281 0 -409 4 -419 12 -18 14 -19 21 -15 126 l3 85 6
-85 c3 -47 6 52 6 220 0 226 -2 266 -6 155 -6 -146 -6 -144 -10 100 -2 138 -4
276 -4 308 -1 41 3 60 14 67 9 6 189 10 437 10 413 0 423 0 433 -20z m-983
-112 c-2 -13 -4 -3 -4 22 0 25 2 35 4 23 2 -13 2 -33 0 -45z m-649 -905 c-10
-2 -26 -2 -35 0 -10 3 -2 5 17 5 19 0 27 -2 18 -5z m-379 -66 c1 -5 -3 -5 -9
-2 -5 3 -10 16 -9 28 0 21 1 21 9 2 5 -11 9 -24 9 -28z m418 -4 c-3 -10 -5 -4
-5 12 0 17 2 24 5 18 2 -7 2 -21 0 -30z m1193 -88 c20 -21 22 -29 12 -49 -14
-31 -57 -42 -88 -21 -28 18 -30 41 -8 73 20 29 55 28 84 -3z m-1372 -12 c-21
-2 -57 -2 -80 0 -24 2 -7 4 37 4 44 0 63 -2 43 -4z m995 -240 c-7 -2 -21 -2
-30 0 -10 3 -4 5 12 5 17 0 24 -2 18 -5z m673 -1 c-8 -13 -586 -15 -586 -2 0
7 97 10 296 10 162 0 293 -4 290 -8z"/>
<path d="M1720 5389 c-17 -30 -4 -36 20 -8 l20 24 19 -22 c25 -30 33 -29 19 2
-15 32 -62 35 -78 4z"/>
<path d="M1211 3353 c-1 -43 3 -73 9 -73 12 0 12 49 1 105 -8 36 -9 33 -10
-32z"/>
<path d="M2013 3320 c0 -25 2 -35 4 -22 2 12 2 32 0 45 -2 12 -4 2 -4 -23z"/>
<path d="M1250 3219 c0 -5 -4 -7 -10 -4 -5 3 -10 1 -10 -4 0 -6 7 -11 15 -11
8 0 15 7 15 15 0 8 -2 15 -5 15 -3 0 -5 -5 -5 -11z"/>
<path d="M1190 3108 c0 -14 8 -18 33 -17 27 2 28 2 7 6 -14 3 -28 10 -32 17
-5 7 -8 5 -8 -6z"/>
<path d="M1928 3093 c6 -2 18 -2 25 0 6 3 1 5 -13 5 -14 0 -19 -2 -12 -5z"/>
<path d="M3440 5335 c0 -8 5 -15 10 -15 6 0 10 7 10 15 0 8 -4 15 -10 15 -5 0
-10 -7 -10 -15z"/>
<path d="M3440 5300 c0 -5 5 -10 10 -10 6 0 10 5 10 10 0 6 -4 10 -10 10 -5 0
-10 -4 -10 -10z"/>
<path d="M3498 5273 c7 -3 16 -2 19 1 4 3 -2 6 -13 5 -11 0 -14 -3 -6 -6z"/>
<path d="M2930 5196 c0 -5 -3 -6 -6 -3 -10 10 -44 -12 -44 -28 0 -7 -4 -17
-10 -20 -6 -4 -7 1 -3 12 6 16 5 17 -13 3 -46 -35 -90 -102 -79 -121 3 -4 1
-10 -5 -14 -7 -4 -10 -199 -10 -571 0 -483 2 -564 14 -564 9 0 16 -12 18 -27
3 -26 6 -28 63 -33 55 -5 60 -7 64 -30 2 -14 0 -148 -4 -298 -8 -312 -1 -292
-104 -297 l-56 -2 -3 -284 c-1 -175 1 -280 7 -274 5 6 25 48 44 95 20 47 48
114 63 150 15 36 58 157 96 270 l70 205 -7 171 -6 172 27 21 c15 12 41 21 61
21 109 0 197 -113 229 -295 24 -136 21 -163 -60 -505 -37 -155 -70 -330 -63
-336 3 -3 28 6 56 20 28 14 52 26 53 26 2 0 3 -51 3 -113 l0 -112 49 -70 c27
-38 52 -72 56 -75 3 -3 7 -14 7 -25 1 -11 8 -49 17 -85 20 -84 20 -270 1 -381
-8 -48 -35 -140 -60 -205 -25 -65 -45 -130 -45 -145 0 -35 37 -88 80 -113 33
-20 55 -21 385 -26 l350 -5 -95 -71 c-264 -197 -394 -261 -730 -359 -153 -45
-252 -96 -438 -226 -78 -55 -148 -99 -154 -97 -6 2 -34 49 -63 103 -36 70 -57
100 -69 99 -9 -1 -23 11 -32 27 -18 35 -28 38 -20 5 6 -23 4 -23 -74 -25 -70
-2 -81 0 -92 18 -16 26 -58 28 -59 4 -1 -10 -1 -28 -2 -40 0 -27 -14 -30 -20
-5 -3 9 -2 -4 0 -30 l6 -48 -32 0 c-29 0 -37 -11 -32 -42 0 -5 -4 -8 -9 -8 -6
0 -10 7 -10 15 0 8 -6 15 -14 15 -7 0 -19 -7 -26 -15 -7 -8 -19 -15 -26 -15
-8 0 -14 -4 -14 -9 0 -5 -36 -12 -80 -16 -44 -4 -80 -11 -80 -16 0 -5 -36 -9
-80 -9 -47 0 -80 -4 -80 -10 0 -5 -15 -10 -33 -10 -18 0 -52 -9 -75 -20 -25
-12 -62 -20 -94 -20 -37 0 -60 -6 -78 -20 -17 -13 -41 -20 -72 -20 -41 0 -48
-3 -48 -20 0 -17 -7 -20 -40 -20 -22 0 -40 -4 -40 -10 0 -5 -18 -10 -39 -10
-22 0 -41 -5 -43 -10 -2 -6 -55 -13 -121 -17 -64 -3 -117 -10 -117 -15 0 -4
-24 -8 -54 -8 -35 0 -58 -5 -66 -15 -7 -8 -18 -15 -25 -15 -8 0 -15 -5 -17
-10 -2 -6 -55 -13 -121 -17 -64 -3 -117 -10 -117 -15 0 -4 -18 -8 -40 -8 -29
0 -40 -4 -40 -15 0 -13 -24 -15 -160 -15 -100 0 -160 4 -160 10 0 6 -18 10
-40 10 -22 0 -40 -4 -40 -10 0 -6 -33 -10 -80 -10 l-80 0 0 -120 0 -120 4000
0 4000 0 0 754 c0 448 -4 757 -9 761 -5 3 -16 -2 -24 -10 -24 -23 -47 -19 -47
9 0 24 -51 86 -71 86 -5 0 -9 7 -9 15 0 11 -11 15 -40 15 -36 0 -40 3 -40 25
0 21 -5 25 -30 25 -28 0 -30 2 -30 40 0 33 -3 40 -19 40 -20 0 -81 54 -81 71
0 5 7 9 16 9 9 0 14 6 12 13 -3 7 -26 13 -56 15 l-52 3 0 -55 0 -56 -80 0 -80
0 0 46 c0 27 4 43 10 39 6 -4 10 10 10 34 l0 41 -50 0 -50 0 0 65 0 65 -40 0
c-28 0 -40 4 -40 14 0 8 4 16 9 18 5 2 11 26 12 53 l4 50 -52 3 c-49 3 -53 5
-53 28 0 15 6 24 16 24 17 0 14 22 -4 28 -7 2 -12 -3 -12 -12 0 -12 -10 -16
-40 -16 l-40 0 0 40 0 40 -40 0 c-36 0 -40 -2 -40 -25 0 -14 -4 -25 -9 -25 -5
0 -18 11 -29 25 -11 14 -25 25 -31 25 -6 0 -11 17 -11 40 l0 40 -80 0 -80 0 0
35 c0 19 -1 35 -2 35 -80 12 -78 13 -78 -14 0 -33 -13 -33 -38 -1 -11 14 -26
25 -33 25 -10 0 -10 3 -1 12 17 17 15 65 -4 72 -9 3 -39 7 -67 7 -29 1 -44 3
-34 6 9 2 17 9 17 15 0 8 -37 9 -122 5 -66 -4 -140 -7 -162 -7 -30 0 -37 -3
-26 -10 8 -5 29 -10 45 -11 l30 -2 -27 -4 c-36 -6 -35 -17 2 -44 16 -12 27
-26 24 -31 -3 -4 5 -8 18 -8 18 0 20 2 8 10 -12 8 -9 10 12 10 15 0 30 -4 33
-10 3 -5 0 -10 -8 -10 -10 0 -13 -8 -9 -25 2 -14 8 -25 13 -25 5 0 9 -7 9 -15
0 -8 -4 -15 -10 -15 -5 0 -10 -16 -10 -36 0 -34 -28 -74 -51 -74 -4 0 -9 -7
-11 -15 -2 -12 -7 -11 -27 4 -21 16 -24 26 -22 70 l2 51 -56 0 -55 0 0 33 c0
32 -1 32 -40 29 -22 -2 -48 -1 -58 4 -9 4 -20 6 -24 6 -15 -3 -8 14 11 30 11
9 39 19 63 21 l43 4 -48 1 c-26 1 -64 9 -84 17 -34 14 -35 16 -20 33 15 16 15
19 -3 30 -15 9 -20 24 -21 65 -2 52 -2 52 -8 12 l-7 -40 -5 45 c-3 25 -3 56 0
70 4 23 5 23 12 5 5 -14 8 -6 8 25 0 34 -3 40 -9 25 -6 -14 -9 -1 -9 45 -1 36
-4 90 -8 120 -6 48 -8 51 -13 25 -5 -24 -8 -15 -15 43 -5 50 -12 72 -21 72
-10 0 -14 14 -14 48 0 41 -5 53 -29 75 -21 18 -28 32 -24 46 3 12 1 21 -6 21
-6 0 -11 -5 -11 -12 0 -6 -9 -3 -20 7 -12 11 -21 32 -21 54 l-2 36 -7 -35 c-4
-19 -8 -28 -9 -20 -1 13 -2 13 -11 0 -5 -8 -10 -25 -10 -37 0 -12 -5 -23 -12
-25 -9 -3 -9 -26 0 -100 8 -66 9 -105 2 -123 -6 -14 -9 -43 -8 -63 1 -36 1
-36 7 8 l7 45 4 -47 c4 -34 2 -48 -7 -48 -10 0 -13 -69 -13 -318 0 -356 -4
-385 -65 -464 -42 -56 -120 -98 -183 -98 -38 0 -43 -2 -37 -17 31 -77 24 -131
-24 -177 -27 -26 -35 -28 -83 -24 -71 6 -118 30 -147 76 -36 54 -34 116 3 171
29 42 31 43 75 36 26 -3 92 -9 148 -11 113 -6 141 3 194 57 66 67 64 53 67
507 2 316 0 412 -9 406 -8 -5 -10 -37 -6 -113 3 -74 3 -90 -3 -51 -5 30 -10
163 -12 297 -1 133 -6 235 -10 225 -3 -9 -4 -71 -2 -137 3 -89 2 -114 -6 -96
-6 13 -8 44 -5 70 3 25 2 66 -3 91 -9 40 -10 42 -11 13 -1 -48 -28 -44 -34 5
-3 20 -4 -5 -2 -57 3 -98 -6 -149 -27 -163 -21 -13 -24 -10 -21 30 l2 37 -8
-36 c-7 -34 -58 -109 -74 -109 -5 0 -5 -4 -2 -10 3 -5 0 -8 -7 -5 -7 3 -60
-22 -118 -54 l-105 -59 -8 191 c-4 106 -5 202 -2 214 8 33 104 60 160 45 22
-6 42 -8 44 -6 3 3 -5 7 -17 11 -20 5 -22 12 -22 74 0 62 -2 69 -20 69 -11 0
-20 7 -20 15 0 24 26 17 45 -11 29 -45 108 -119 113 -106 2 7 10 12 18 12 19
0 19 -57 0 -76 -8 -8 -12 -23 -9 -35 5 -17 3 -20 -8 -15 -8 4 -6 1 4 -7 9 -8
17 -21 17 -30 0 -9 5 -19 11 -23 8 -4 9 1 4 16 -5 15 -3 20 3 16 6 -3 13 4 16
16 2 13 4 4 3 -19 -2 -24 1 -43 5 -43 5 0 8 36 8 79 0 46 5 83 11 86 7 5 5 12
-5 23 -8 10 -14 34 -13 55 0 20 -5 43 -12 50 -11 10 -13 3 -8 -38 2 -27 3 -42
0 -32 -3 11 -14 17 -34 17 -27 0 -29 2 -29 40 l0 40 -48 0 c-26 0 -53 5 -60
12 -16 16 -15 45 1 51 6 2 9 8 5 12 -13 14 -58 -43 -58 -75 0 -16 -4 -30 -10
-30 -5 0 -10 7 -10 16 0 8 -4 13 -8 10 -4 -2 -8 13 -9 34 -2 33 1 37 18 33 10
-3 19 0 19 6 0 6 -4 11 -10 11 -5 0 -10 5 -10 10 0 6 -9 19 -20 30 l-20 20 0
-21 c0 -11 5 -17 10 -14 6 3 10 -1 10 -9 0 -9 -5 -16 -11 -16 -8 0 -10 -14 -6
-39 3 -25 1 -41 -7 -44 -7 -3 -10 9 -7 39 2 29 -1 44 -9 44 -7 0 -9 -8 -5 -20
3 -11 3 -41 -2 -67 -5 -28 -10 218 -13 602 -5 647 -5 650 -27 685 -25 41 -64
72 -111 88 -22 8 -243 11 -727 13 -393 1 -698 5 -701 10 -3 5 39 9 95 9 98 0
139 12 81 24 -17 3 -30 11 -30 17 0 6 -10 25 -22 42 -15 21 -18 32 -10 35 7 2
12 9 12 16 0 12 -159 36 -232 36 -15 0 -31 7 -35 15 -8 13 -46 16 -246 18
-141 1 -237 -2 -237 -7z m590 -212 c0 -2 -19 -4 -42 -3 -35 1 -38 2 -18 8 23
7 60 4 60 -5z m-203 -176 c-3 -8 -6 -5 -6 6 -1 11 2 17 5 13 3 -3 4 -12 1 -19z
m1690 -94 l25 -25 -7 -1277 c-8 -1648 -10 -1779 -25 -1797 -7 -8 -9 -15 -5
-15 4 0 2 -7 -5 -15 -10 -12 -37 -15 -144 -13 l-131 2 135 6 135 5 -3 29 c-2
17 -8 40 -13 54 -5 13 -9 39 -9 58 0 33 -1 34 -40 34 -29 0 -40 4 -40 15 0 11
-11 15 -40 15 -22 0 -40 4 -40 9 0 6 -24 11 -52 13 -44 2 -53 6 -56 23 -8 40
-29 52 -82 47 -46 -4 -50 -3 -50 17 0 18 -6 21 -40 21 -22 0 -40 5 -40 11 0 5
-4 8 -9 5 -21 -13 -34 25 -28 85 5 54 4 58 -8 36 -9 -17 -10 -38 -4 -73 13
-75 13 -77 -1 -111 -8 -19 -23 -33 -36 -36 -20 -3 -22 -1 -14 14 6 10 15 21
20 24 6 3 10 15 10 25 0 10 6 21 13 23 9 4 9 6 -1 6 -7 1 -16 -9 -21 -21 -31
-80 -180 -123 -277 -79 -61 28 -104 100 -104 177 0 38 6 68 16 82 19 27 12 41
-11 22 -14 -12 -15 -11 -4 13 10 21 15 24 26 15 11 -8 18 -6 34 10 19 22 13
32 -7 12 -13 -13 -44 -3 -44 14 0 22 18 39 38 34 15 -4 18 -1 15 13 -3 11 -11
19 -18 19 -7 0 -15 6 -17 12 -3 7 -13 13 -24 13 -13 0 -20 8 -22 28 -2 17 1
27 10 27 9 0 9 3 -2 10 -18 12 -158 12 -217 1 -23 -5 -40 -5 -38 0 6 9 -113
23 -158 17 -35 -4 -72 18 -45 26 24 8 191 16 383 18 105 1 156 4 115 6 -70 3
-77 6 -100 35 -14 17 -19 28 -12 23 9 -5 13 -3 11 5 -3 28 1 39 16 39 10 0 15
10 15 30 0 17 5 30 10 30 6 0 10 -7 10 -16 0 -8 5 -12 10 -9 6 3 10 19 10 34
0 16 7 34 15 41 24 20 17 33 -15 28 -17 -3 -33 -2 -35 2 -2 3 6 7 18 7 12 1
23 7 25 13 2 5 10 10 18 10 8 0 14 10 14 25 0 19 -6 25 -22 27 -13 1 11 4 52
8 l75 6 -85 4 c-69 2 -78 4 -50 11 26 6 14 7 -50 7 -127 -1 -156 5 -60 12 75
6 67 6 -67 8 -92 1 -154 -2 -158 -8 -3 -5 -19 -10 -36 -10 -16 0 -29 5 -29 10
0 6 -13 10 -30 10 -42 0 -62 43 -59 124 5 102 -1 700 -6 694 -3 -3 -6 -113 -7
-244 -1 -131 -5 -212 -8 -179 -4 46 -9 61 -22 63 -10 2 -18 -1 -18 -7 0 -6 7
-11 16 -11 12 0 15 -10 13 -47 -1 -27 -8 -55 -14 -63 -7 -8 -15 -33 -19 -55
-14 -81 -18 -95 -30 -95 -22 0 -26 99 -33 912 -7 839 -7 839 41 858 12 5 360
9 774 9 l753 1 26 -26z m-1690 -26 c-3 -7 -5 -2 -5 12 0 14 2 19 5 13 2 -7 2
-19 0 -25z m2120 -1310 c-3 -8 -6 -5 -6 6 -1 11 2 17 5 13 3 -3 4 -12 1 -19z
m110 -270 c-3 -8 -6 -5 -6 6 -1 11 2 17 5 13 3 -3 4 -12 1 -19z m130 -20 c-3
-7 -5 -2 -5 12 0 14 2 19 5 13 2 -7 2 -19 0 -25z m184 -219 l-11 -34 5 34 c3
18 6 48 7 65 l1 31 4 -31 c2 -18 -1 -47 -6 -65z m-2423 -41 c2 41 18 42 26 1
10 -53 8 -70 -11 -67 -14 2 -19 -6 -24 -42 -4 -29 -6 -7 -6 60 0 76 2 93 7 60
6 -39 7 -40 8 -12z m2219 -10 c-2 -13 -4 -3 -4 22 0 25 2 35 4 23 2 -13 2 -33
0 -45z m-382 -85 c65 -34 102 -77 116 -136 20 -85 -5 -163 -60 -192 -51 -26
-96 -28 -137 -7 -73 37 -78 49 -82 187 -4 122 -4 124 21 149 34 34 78 34 142
-1z m-1618 11 c-3 -3 -12 -4 -19 -1 -8 3 -5 6 6 6 11 1 17 -2 13 -5z m260 -20
c-3 -3 -12 -4 -19 -1 -8 3 -5 6 6 6 11 1 17 -2 13 -5z m86 -14 c-6 -21 -24
-23 -30 -3 -2 6 4 13 14 16 10 3 19 5 20 6 0 0 -1 -8 -4 -19z m1837 -180 c0
-5 -2 -10 -4 -10 -3 0 -8 5 -11 10 -3 6 -1 10 4 10 6 0 11 -4 11 -10z m0 -40
c0 -5 -15 -9 -32 -9 l-33 1 30 8 c17 4 31 8 33 9 1 0 2 -3 2 -9z m-1920 -180
c0 -5 -4 -10 -9 -10 -6 0 -13 5 -16 10 -3 6 1 10 9 10 9 0 16 -4 16 -10z
m3120 -110 l0 -40 40 0 c36 0 40 -2 40 -25 0 -22 -4 -25 -40 -25 -36 0 -40 3
-40 25 0 23 -4 25 -40 25 l-40 0 0 40 0 40 40 0 40 0 0 -40z m-2564 -357 c-10
-10 -19 5 -10 18 6 11 8 11 12 0 2 -7 1 -15 -2 -18z m107 -270 c-35 -2 -91 -2
-125 0 -35 2 -7 3 62 3 69 0 97 -1 63 -3z m2433 -191 c35 -18 45 -71 23 -115
-13 -25 -200 -207 -213 -207 -8 0 -27 18 -146 144 -56 60 -65 74 -65 107 0 51
32 79 92 79 37 0 50 -6 80 -35 20 -19 37 -35 38 -35 2 0 18 14 36 31 19 17 43
35 54 40 25 10 74 6 101 -9z m-4696 -760 c0 -4 -10 -9 -22 -9 -18 -2 -20 0 -8
7 18 12 30 13 30 2z"/>
<path d="M4186 3923 c-10 -10 -7 -823 3 -823 5 0 11 10 15 23 9 35 7 795 -3
801 -4 3 -11 3 -15 -1z"/>
<path d="M3766 3898 c-11 -41 -7 -804 4 -788 7 10 9 159 8 412 -2 219 -4 398
-4 398 -1 0 -4 -10 -8 -22z"/>
<path d="M3800 3510 l0 -410 30 0 30 0 0 410 0 410 -30 0 -30 0 0 -410z"/>
<path d="M3890 3510 c0 -267 3 -410 10 -410 7 0 10 143 10 410 0 267 -3 410
-10 410 -7 0 -10 -143 -10 -410z"/>
<path d="M3920 3510 c0 -267 3 -410 10 -410 7 0 10 143 10 410 0 267 -3 410
-10 410 -7 0 -10 -143 -10 -410z"/>
<path d="M3950 3510 c0 -267 3 -410 10 -410 7 0 10 143 10 410 0 267 -3 410
-10 410 -7 0 -10 -143 -10 -410z"/>
<path d="M4010 3510 c0 -328 3 -410 13 -410 10 0 12 78 10 393 -1 215 -2 400
-3 410 0 9 -4 17 -10 17 -7 0 -10 -143 -10 -410z"/>
<path d="M4050 3510 c0 -372 2 -410 16 -410 13 0 15 7 10 31 -3 17 -6 202 -6
410 0 246 -4 379 -10 379 -7 0 -10 -143 -10 -410z"/>
<path d="M4086 3586 c-7 -326 -2 -486 15 -486 5 0 9 185 9 410 0 226 -4 410
-8 410 -5 0 -12 -150 -16 -334z"/>
<path d="M4150 3647 c0 -151 -3 -335 -7 -410 -5 -123 -4 -137 10 -137 16 0 17
35 17 410 0 267 -3 410 -10 410 -6 0 -10 -98 -10 -273z"/>
<path d="M4240 3510 c0 -267 3 -410 10 -410 7 0 10 143 10 410 0 267 -3 410
-10 410 -7 0 -10 -143 -10 -410z"/>
<path d="M4315 3510 c0 -228 1 -322 2 -208 2 115 2 301 0 415 -1 115 -2 21 -2
-207z"/>
<path d="M4332 3508 c-2 -277 1 -408 8 -398 11 17 13 764 1 793 -3 10 -8 -168
-9 -395z"/>
<path d="M4380 3510 c0 -358 2 -410 15 -410 13 0 15 52 15 410 0 358 -2 410
-15 410 -13 0 -15 -52 -15 -410z"/>
<path d="M4428 3763 c-8 -464 -4 -663 13 -663 5 0 9 185 9 410 0 267 -3 410
-10 410 -6 0 -11 -61 -12 -157z"/>
<path d="M4470 3510 c0 -407 0 -410 21 -410 20 0 20 2 18 363 -3 415 -5 457
-25 457 -12 0 -14 -65 -14 -410z"/>
<path d="M4542 3513 c-2 -407 -2 -413 18 -413 20 0 20 7 20 410 0 267 -3 410
-10 410 -6 0 -11 -144 -12 -407 l-3 -408 -5 410 -5 410 -3 -412z"/>
<path d="M4608 3518 c-2 -222 -1 -407 4 -413 4 -5 8 176 8 403 0 227 -2 412
-4 412 -2 0 -6 -181 -8 -402z"/>
<path d="M4638 3863 c-7 -77 -1 -753 6 -761 3 -3 6 180 6 406 0 227 -2 412 -4
412 -2 0 -5 -26 -8 -57z"/>
<path d="M3992 3590 c0 -14 2 -19 5 -12 2 6 2 18 0 25 -3 6 -5 1 -5 -13z"/>
<path d="M3994 3285 c0 -104 2 -146 3 -92 2 54 2 139 0 190 -1 51 -3 7 -3 -98z"/>
<path d="M4272 3345 c0 -16 2 -22 5 -12 2 9 2 23 0 30 -3 6 -5 -1 -5 -18z"/>
<path d="M3925 3041 c-3 -5 0 -13 6 -17 7 -4 9 -3 5 4 -3 5 0 13 6 15 9 4 10
6 1 6 -6 1 -14 -3 -18 -8z"/>
<path d="M4020 3030 c-7 -14 -7 -20 0 -20 5 0 10 7 10 16 0 8 5 12 10 9 6 -3
10 -1 10 4 0 18 -19 12 -30 -9z"/>
<path d="M4466 3037 c3 -10 9 -15 12 -12 3 3 0 11 -7 18 -10 9 -11 8 -5 -6z"/>
<path d="M4505 3039 c-4 -6 -4 -13 -1 -16 3 -4 6 -1 6 6 0 8 6 11 16 7 8 -3
12 -2 9 4 -8 13 -22 13 -30 -1z"/>
<path d="M4108 3018 c-14 -14 -15 -18 -4 -18 8 0 17 7 20 16 9 23 4 24 -16 2z"/>
<path d="M4286 3025 c-3 -8 -1 -15 4 -15 6 0 10 7 10 15 0 8 -2 15 -4 15 -2 0
-6 -7 -10 -15z"/>
<path d="M3897 3023 c-4 -3 -7 -11 -7 -17 0 -6 5 -5 12 2 6 6 9 14 7 17 -3 3
-9 2 -12 -2z"/>
<path d="M3948 3003 c7 -3 16 -2 19 1 4 3 -2 6 -13 5 -11 0 -14 -3 -6 -6z"/>
<path d="M4173 2773 c9 -2 23 -2 30 0 6 3 -1 5 -18 5 -16 0 -22 -2 -12 -5z"/>
<path d="M4248 2773 c6 -2 18 -2 25 0 6 3 1 5 -13 5 -14 0 -19 -2 -12 -5z"/>
<path d="M4093 2753 c9 -2 23 -2 30 0 6 3 -1 5 -18 5 -16 0 -22 -2 -12 -5z"/>
<path d="M4123 2683 c9 -2 23 -2 30 0 6 3 -1 5 -18 5 -16 0 -22 -2 -12 -5z"/>
<path d="M4178 2393 c12 -2 30 -2 40 0 9 3 -1 5 -23 4 -22 0 -30 -2 -17 -4z"/>
<path d="M4293 2393 c9 -2 25 -2 35 0 9 3 1 5 -18 5 -19 0 -27 -2 -17 -5z"/>
<path d="M4208 2323 c12 -2 30 -2 40 0 9 3 -1 5 -23 4 -22 0 -30 -2 -17 -4z"/>
<path d="M4080 2256 c0 -8 9 -24 21 -35 20 -18 20 -20 2 -31 -15 -9 -11 -10
17 -3 19 4 69 7 110 7 41 0 66 2 56 4 -11 2 -14 7 -8 11 6 3 -23 5 -64 3 -78
-4 -107 6 -102 36 2 9 -5 18 -14 20 -11 2 -18 -3 -18 -12z"/>
<path d="M4158 2228 c5 -5 16 -8 23 -6 8 3 3 7 -10 11 -17 4 -21 3 -13 -5z"/>
<path d="M4370 2199 c0 -5 5 -7 10 -4 6 3 10 8 10 11 0 2 -4 4 -10 4 -5 0 -10
-5 -10 -11z"/>
<path d="M4402 2084 c7 -15 14 -21 16 -15 5 16 -5 41 -17 41 -7 0 -6 -10 1
-26z"/>
<path d="M4462 2060 c0 -14 2 -19 5 -12 2 6 2 18 0 25 -3 6 -5 1 -5 -13z"/>
<path d="M4450 2023 c0 -18 20 -66 25 -61 3 3 -1 20 -9 39 -9 19 -15 29 -16
22z"/>
<path d="M4971 1704 c-1 -23 23 -62 31 -48 2 5 1 23 -3 39 -6 28 -7 29 -9 5
l-2 -25 -8 25 c-7 22 -8 22 -9 4z"/>
<path d="M6664 1362 c-22 -14 -34 -50 -25 -74 10 -26 175 -198 189 -198 11 0
195 185 201 201 6 18 -21 68 -40 74 -32 11 -75 -4 -117 -41 l-41 -35 -52 41
c-49 38 -89 50 -115 32z"/>
<path d="M3900 5020 c-23 -7 -23 -8 -3 -9 12 -1 25 4 28 9 3 6 5 10 3 9 -2 -1
-14 -5 -28 -9z"/>
<path d="M5131 3783 c0 -42 3 -52 9 -38 12 28 12 95 0 95 -6 0 -10 -25 -9 -57z"/>
<path d="M5163 3795 c0 -27 2 -38 4 -22 2 15 2 37 0 50 -2 12 -4 0 -4 -28z"/>
<path d="M2813 3721 c4 -17 -1 -21 -32 -24 -31 -3 -33 -5 -14 -11 12 -5 25
-17 29 -28 8 -28 -4 -84 -22 -99 -10 -8 -14 -26 -13 -54 2 -22 -1 -47 -6 -54
-10 -17 -11 -173 -1 -189 4 -7 25 -11 49 -9 l42 2 8 210 c7 180 6 215 -7 243
-17 35 -42 44 -33 13z"/>
<path d="M2683 3702 c-13 -2 -23 -8 -23 -13 0 -9 37 -3 49 7 8 7 -4 10 -26 6z"/>
<path d="M2690 3648 c0 -19 2 -20 10 -8 13 19 13 30 0 30 -5 0 -10 -10 -10
-22z"/>
<path d="M2691 3611 c-8 -5 -10 -14 -6 -21 6 -9 10 -8 17 4 12 21 7 28 -11 17z"/>
<path d="M2750 3604 c0 -8 5 -12 10 -9 6 4 8 11 5 16 -9 14 -15 11 -15 -7z"/>
<path d="M5551 3534 c0 -11 3 -14 6 -6 3 7 2 16 -1 19 -3 4 -6 -2 -5 -13z"/>
<path d="M5400 3440 c0 -7 -15 -9 -42 -6 -33 4 -39 3 -25 -5 10 -6 21 -8 24
-5 4 3 12 1 19 -5 10 -8 17 -7 29 4 9 10 11 18 5 22 -5 3 -10 1 -10 -5z"/>
<path d="M2652 3422 c-17 -3 -21 -8 -17 -22 3 -10 2 -21 -3 -24 -16 -9 0 -58
19 -63 11 -3 19 -14 19 -25 0 -13 6 -18 18 -16 32 6 34 153 2 153 -8 1 -25 -1
-38 -3z m35 -134 c-3 -8 -6 -5 -6 6 -1 11 2 17 5 13 3 -3 4 -12 1 -19z"/>
<path d="M5582 3390 c0 -19 2 -27 5 -17 2 9 2 25 0 35 -3 9 -5 1 -5 -18z"/>
<path d="M5366 3386 c21 -15 30 -14 19 3 -3 6 -14 11 -23 11 -13 0 -13 -2 4
-14z"/>
<path d="M5576 3234 c-10 -26 -7 -114 4 -114 6 0 10 28 10 65 0 66 -3 77 -14
49z"/>
<path d="M2476 3205 c-9 -26 -7 -32 5 -12 6 10 9 21 6 23 -2 3 -7 -2 -11 -11z"/>
<path d="M5857 3110 c3 -36 7 -67 9 -69 7 -8 2 73 -6 104 -5 19 -6 6 -3 -35z"/>
<path d="M5990 2960 c0 -6 -4 -8 -10 -5 -6 4 -10 -43 -10 -135 l0 -141 290 1
c194 1 288 5 284 11 -3 6 -25 9 -48 8 -85 -5 -371 4 -316 10 48 5 53 7 35 18
-16 10 -18 14 -7 25 10 10 63 13 218 14 112 1 207 4 211 8 3 3 -91 6 -209 6
-185 0 -217 2 -222 15 -6 15 8 24 74 46 21 6 17 8 -17 6 -31 -1 -47 4 -56 18
-9 11 -19 15 -28 10 -10 -6 -11 -5 -3 4 7 7 60 12 157 13 151 1 208 17 70 19
-43 1 -70 3 -60 6 34 9 5 23 -49 23 -61 0 -73 -17 -16 -23 24 -3 20 -3 -11 -2
-48 2 -66 9 -53 22 4 4 41 10 84 14 54 4 63 6 31 7 -25 1 -75 4 -110 7 -49 3
-57 2 -34 -5 29 -9 29 -9 -5 -4 -81 13 -190 15 -190 4z"/>
<path d="M6508 2823 c7 -3 16 -2 19 1 4 3 -2 6 -13 5 -11 0 -14 -3 -6 -6z"/>
<path d="M6812 2760 c15 -24 33 -27 24 -4 -3 9 -6 18 -6 20 0 2 -7 4 -15 4
-13 0 -13 -3 -3 -20z"/>
<path d="M6750 2721 l-35 -5 45 -6 c40 -6 37 -7 -28 -8 -106 -3 -81 -22 29
-22 53 0 89 4 89 10 0 6 -8 10 -17 10 -15 0 -16 2 -3 10 13 8 13 10 -2 10 -9
0 -22 2 -30 3 -7 2 -29 1 -48 -2z"/>
<path d="M6378 2713 c34 -2 90 -2 125 0 34 2 6 3 -63 3 -69 0 -97 -1 -62 -3z"/>
<path d="M6928 2713 c7 -3 16 -2 19 1 4 3 -2 6 -13 5 -11 0 -14 -3 -6 -6z"/>
<path d="M6677 2554 c6 -17 36 -19 31 -2 -2 6 -11 12 -20 14 -11 1 -15 -3 -11
-12z"/>
<path d="M6718 2525 c4 -50 22 -62 22 -15 0 21 5 30 16 30 25 0 10 25 -17 28
-23 3 -24 1 -21 -43z"/>
<path d="M6890 2540 c-9 -16 -8 -20 5 -20 8 0 15 9 15 20 0 11 -2 20 -5 20 -2
0 -9 -9 -15 -20z"/>
<path d="M7352 1975 c0 -16 2 -22 5 -12 2 9 2 23 0 30 -3 6 -5 -1 -5 -18z"/>
<path d="M1255 419 c-4 -6 -5 -13 -2 -16 7 -7 27 6 27 18 0 12 -17 12 -25 -2z"/>
</g>
</svg>
