<svg xmlns="http://www.w3.org/2000/svg" xmlns:xlink="http://www.w3.org/1999/xlink" width="1080" zoomAndPan="magnify" viewBox="0 0 810 809.999993" height="1080" preserveAspectRatio="xMidYMid meet" version="1.0"><defs><g/><clipPath id="11618e4a41"><path d="M 0.519531 101 L 1 101 L 1 102 L 0.519531 102 Z M 0.519531 101 " clip-rule="nonzero"/></clipPath><clipPath id="3d59cc2643"><path d="M 36 0.28125 L 98 0.28125 L 98 104 L 36 104 Z M 36 0.28125 " clip-rule="nonzero"/></clipPath><clipPath id="4ac0be8ca8"><rect x="0" width="428" y="0" height="280"/></clipPath></defs><rect x="-81" width="972" fill="#ffffff" y="-80.999999" height="971.999992" fill-opacity="1"/><rect x="-81" width="972" fill="#ffffff" y="-80.999999" height="971.999992" fill-opacity="1"/><g transform="matrix(1, 0, 0, 1, 161, 263)"><g clip-path="url(#4ac0be8ca8)"><g clip-path="url(#11618e4a41)"><g fill="#1e1e1e" fill-opacity="1"><g transform="translate(0.598291, 101.912444)"><g/></g></g></g><g clip-path="url(#3d59cc2643)"><g fill="#1e1e1e" fill-opacity="1"><g transform="translate(33.887142, 101.912444)"><g><path d="M 33.421875 -101.109375 C 43.410156 -101.109375 50.832031 -99.09375 55.6875 -95.0625 C 60.539062 -91.039062 62.96875 -83.804688 62.96875 -73.359375 L 62.96875 -62.546875 L 37.453125 -62.546875 L 37.453125 -78.359375 C 37.453125 -80.671875 37.101562 -82.265625 36.40625 -83.140625 C 35.707031 -84.015625 34.710938 -84.453125 33.421875 -84.453125 C 30.179688 -84.453125 28.5625 -82.144531 28.5625 -77.53125 L 28.5625 -22.328125 C 28.5625 -19.921875 28.976562 -18.09375 29.8125 -16.84375 C 30.644531 -15.601562 31.847656 -14.984375 33.421875 -14.984375 C 35.179688 -14.984375 36.429688 -15.535156 37.171875 -16.640625 C 37.910156 -17.753906 38.28125 -19.507812 38.28125 -21.90625 L 38.28125 -39.25 L 33 -39.25 L 33 -53.390625 L 63.796875 -53.390625 L 63.796875 0 L 47.15625 0 L 45.21875 -6.9375 C 43 -3.976562 40.203125 -1.734375 36.828125 -0.203125 C 33.453125 1.316406 29.820312 2.078125 25.9375 2.078125 C 17.800781 2.078125 11.953125 -0.671875 8.390625 -6.171875 C 4.828125 -11.671875 3.046875 -18.304688 3.046875 -26.078125 L 3.046875 -71.140625 C 3.046875 -81.679688 5.585938 -89.3125 10.671875 -94.03125 C 15.765625 -98.75 23.347656 -101.109375 33.421875 -101.109375 Z M 33.421875 -101.109375 "/></g></g></g></g><g fill="#1e1e1e" fill-opacity="1"><g transform="translate(100.728085, 101.912444)"><g><path d="M 43.125 -83.34375 L 43.125 -53.8125 C 41.28125 -54 39.894531 -54.09375 38.96875 -54.09375 C 35.457031 -54.09375 32.820312 -53.050781 31.0625 -50.96875 C 29.3125 -48.882812 28.4375 -46.457031 28.4375 -43.6875 L 28.4375 0 L 3.75 0 L 3.75 -81.265625 L 27.59375 -81.265625 L 27.59375 -70.875 L 27.875 -70.875 C 28.613281 -73.925781 30.507812 -76.695312 33.5625 -79.1875 C 36.613281 -81.6875 39.800781 -83.070312 43.125 -83.34375 Z M 43.125 -83.34375 "/></g></g></g><g fill="#1e1e1e" fill-opacity="1"><g transform="translate(144.410451, 101.912444)"><g><path d="M 30.234375 -83.34375 C 39.109375 -83.34375 46.039062 -81.65625 51.03125 -78.28125 C 56.03125 -74.914062 58.53125 -68.789062 58.53125 -59.90625 L 58.53125 0 L 34.671875 0 L 34.671875 -4.578125 C 32.359375 -2.265625 29.835938 -0.578125 27.109375 0.484375 C 24.378906 1.546875 21.722656 2.078125 19.140625 2.078125 C 13.773438 2.078125 9.75 0.4375 7.0625 -2.84375 C 4.382812 -6.125 3.046875 -10.125 3.046875 -14.84375 L 3.046875 -27.328125 C 3.046875 -30.460938 3.367188 -32.910156 4.015625 -34.671875 C 4.671875 -36.429688 6.0625 -38.050781 8.1875 -39.53125 C 10.3125 -41.007812 13.6875 -42.578125 18.3125 -44.234375 C 22.925781 -45.992188 26.320312 -47.425781 28.5 -48.53125 C 30.675781 -49.644531 32.109375 -50.6875 32.796875 -51.65625 C 33.492188 -52.632812 33.84375 -53.863281 33.84375 -55.34375 L 33.84375 -66.296875 C 33.84375 -67.304688 33.492188 -68.320312 32.796875 -69.34375 C 32.109375 -70.363281 31.066406 -70.875 29.671875 -70.875 C 28.472656 -70.875 27.550781 -70.457031 26.90625 -69.625 C 26.257812 -68.789062 25.9375 -67.679688 25.9375 -66.296875 L 25.9375 -49.921875 L 3.046875 -49.921875 L 3.046875 -59.21875 C 3.046875 -68.09375 5.378906 -74.332031 10.046875 -77.9375 C 14.722656 -81.539062 21.453125 -83.34375 30.234375 -83.34375 Z M 25.9375 -26.625 L 25.9375 -17.609375 C 25.9375 -16.597656 26.234375 -15.628906 26.828125 -14.703125 C 27.429688 -13.773438 28.335938 -13.3125 29.546875 -13.3125 C 30.929688 -13.3125 31.992188 -13.773438 32.734375 -14.703125 C 33.472656 -15.628906 33.84375 -16.507812 33.84375 -17.34375 L 33.84375 -38.6875 C 31.625 -37.300781 29.75 -35.660156 28.21875 -33.765625 C 26.695312 -31.867188 25.9375 -29.488281 25.9375 -26.625 Z M 25.9375 -26.625 "/></g></g></g><g fill="#1e1e1e" fill-opacity="1"><g transform="translate(205.981784, 101.912444)"><g><path d="M 43.6875 -83.34375 C 49.414062 -83.34375 53.644531 -81.398438 56.375 -77.515625 C 59.101562 -73.640625 60.46875 -68.554688 60.46875 -62.265625 L 60.46875 0 L 35.78125 0 L 35.78125 -61.15625 C 35.78125 -62.363281 35.5 -63.585938 34.9375 -64.828125 C 34.382812 -66.078125 33.367188 -66.703125 31.890625 -66.703125 C 29.585938 -66.703125 28.4375 -64.898438 28.4375 -61.296875 L 28.4375 0 L 3.75 0 L 3.75 -81.265625 L 28.4375 -81.265625 L 28.4375 -75.03125 L 28.703125 -75.03125 C 30.003906 -77.4375 31.992188 -79.421875 34.671875 -80.984375 C 37.347656 -82.554688 40.351562 -83.34375 43.6875 -83.34375 Z M 43.6875 -83.34375 "/></g></g></g><g fill="#1e1e1e" fill-opacity="1"><g transform="translate(0.598291, 239.686404)"><g><path d="M 59.90625 -76.96875 L 59.90625 -63.515625 C 59.90625 -55.660156 58.101562 -49.835938 54.5 -46.046875 C 50.894531 -42.253906 45.859375 -40.359375 39.390625 -40.359375 L 27.734375 -40.359375 L 27.734375 0 L 3.046875 0 L 3.046875 -99.015625 L 37.03125 -99.015625 C 44.332031 -99.015625 49.96875 -97.097656 53.9375 -93.265625 C 57.914062 -89.429688 59.90625 -84 59.90625 -76.96875 Z M 38.28125 -62.6875 L 38.28125 -76.6875 C 38.28125 -80.476562 36.335938 -82.375 32.453125 -82.375 L 27.734375 -82.375 L 27.734375 -57 L 32.453125 -57 C 36.335938 -57 38.28125 -58.894531 38.28125 -62.6875 Z M 38.28125 -62.6875 "/></g></g></g><g fill="#1e1e1e" fill-opacity="1"><g transform="translate(62.169623, 239.686404)"><g><path d="M 32.171875 -83.34375 C 37.253906 -83.34375 41.875 -82.300781 46.03125 -80.21875 C 50.195312 -78.144531 53.503906 -75.117188 55.953125 -71.140625 C 58.410156 -67.171875 59.640625 -62.457031 59.640625 -57 L 59.640625 -39.390625 L 27.734375 -39.390625 L 27.734375 -17.75 C 27.734375 -14.507812 28.984375 -12.890625 31.484375 -12.890625 C 34.347656 -12.890625 35.78125 -14.695312 35.78125 -18.3125 L 35.78125 -33.140625 L 59.640625 -33.140625 L 59.640625 -24.265625 C 59.640625 -16.316406 57.300781 -9.9375 52.625 -5.125 C 47.957031 -0.320312 41.140625 2.078125 32.171875 2.078125 C 22.742188 2.078125 15.53125 -0.300781 10.53125 -5.0625 C 5.539062 -9.820312 3.046875 -16.222656 3.046875 -24.265625 L 3.046875 -57 C 3.046875 -65.132812 5.585938 -71.554688 10.671875 -76.265625 C 15.765625 -80.984375 22.929688 -83.34375 32.171875 -83.34375 Z M 27.734375 -63.515625 L 27.734375 -52.703125 L 35.78125 -52.703125 L 35.78125 -62.96875 C 35.78125 -66.570312 34.347656 -68.375 31.484375 -68.375 C 28.984375 -68.375 27.734375 -66.753906 27.734375 -63.515625 Z M 27.734375 -63.515625 "/></g></g></g><g fill="#1e1e1e" fill-opacity="1"><g transform="translate(123.740956, 239.686404)"><g><path d="M 27.734375 0 L 3.046875 0 L 3.046875 -99.015625 L 27.734375 -99.015625 Z M 27.734375 0 "/></g></g></g><g fill="#1e1e1e" fill-opacity="1"><g transform="translate(154.526621, 239.686404)"><g><path d="M 32.171875 -83.34375 C 41.515625 -83.34375 48.703125 -80.960938 53.734375 -76.203125 C 58.773438 -71.441406 61.296875 -65.039062 61.296875 -57 L 61.296875 -24.265625 C 61.296875 -16.222656 58.773438 -9.820312 53.734375 -5.0625 C 48.703125 -0.300781 41.515625 2.078125 32.171875 2.078125 C 22.835938 2.078125 15.648438 -0.300781 10.609375 -5.0625 C 5.566406 -9.820312 3.046875 -16.222656 3.046875 -24.265625 L 3.046875 -57 C 3.046875 -65.039062 5.566406 -71.441406 10.609375 -76.203125 C 15.648438 -80.960938 22.835938 -83.34375 32.171875 -83.34375 Z M 27.734375 -63.234375 L 27.734375 -19.6875 C 27.734375 -18.207031 28.148438 -16.984375 28.984375 -16.015625 C 29.816406 -15.046875 30.878906 -14.5625 32.171875 -14.5625 C 33.460938 -14.5625 34.523438 -15.046875 35.359375 -16.015625 C 36.191406 -16.984375 36.609375 -18.207031 36.609375 -19.6875 L 36.609375 -63.234375 C 36.609375 -64.710938 36.191406 -65.9375 35.359375 -66.90625 C 34.523438 -67.882812 33.460938 -68.375 32.171875 -68.375 C 30.597656 -68.375 29.460938 -67.796875 28.765625 -66.640625 C 28.078125 -65.484375 27.734375 -64.347656 27.734375 -63.234375 Z M 27.734375 -63.234375 "/></g></g></g><g fill="#1e1e1e" fill-opacity="1"><g transform="translate(218.871431, 239.686404)"><g><path d="M 31.34375 -93.75 L 31.34375 -81.265625 L 37.859375 -81.265625 L 37.859375 -67.953125 L 31.34375 -67.953125 L 31.34375 -16.359375 C 31.34375 -14.328125 32.265625 -13.3125 34.109375 -13.3125 L 37.859375 -13.3125 L 37.859375 0 L 23.578125 0 C 18.585938 0 14.796875 -0.691406 12.203125 -2.078125 C 9.617188 -3.460938 7.910156 -5.425781 7.078125 -7.96875 C 6.242188 -10.507812 5.828125 -13.910156 5.828125 -18.171875 L 5.828125 -67.953125 L 0.6875 -67.953125 L 0.6875 -81.265625 L 5.828125 -81.265625 L 5.828125 -93.75 Z M 31.34375 -93.75 "/></g></g></g><g fill="#1e1e1e" fill-opacity="1"><g transform="translate(257.422839, 239.686404)"><g><path d="M 32.171875 -83.34375 C 37.253906 -83.34375 41.875 -82.300781 46.03125 -80.21875 C 50.195312 -78.144531 53.503906 -75.117188 55.953125 -71.140625 C 58.410156 -67.171875 59.640625 -62.457031 59.640625 -57 L 59.640625 -39.390625 L 27.734375 -39.390625 L 27.734375 -17.75 C 27.734375 -14.507812 28.984375 -12.890625 31.484375 -12.890625 C 34.347656 -12.890625 35.78125 -14.695312 35.78125 -18.3125 L 35.78125 -33.140625 L 59.640625 -33.140625 L 59.640625 -24.265625 C 59.640625 -16.316406 57.300781 -9.9375 52.625 -5.125 C 47.957031 -0.320312 41.140625 2.078125 32.171875 2.078125 C 22.742188 2.078125 15.53125 -0.300781 10.53125 -5.0625 C 5.539062 -9.820312 3.046875 -16.222656 3.046875 -24.265625 L 3.046875 -57 C 3.046875 -65.132812 5.585938 -71.554688 10.671875 -76.265625 C 15.765625 -80.984375 22.929688 -83.34375 32.171875 -83.34375 Z M 27.734375 -63.515625 L 27.734375 -52.703125 L 35.78125 -52.703125 L 35.78125 -62.96875 C 35.78125 -66.570312 34.347656 -68.375 31.484375 -68.375 C 28.984375 -68.375 27.734375 -66.753906 27.734375 -63.515625 Z M 27.734375 -63.515625 "/></g></g></g><g fill="#1e1e1e" fill-opacity="1"><g transform="translate(318.994172, 239.686404)"><g><path d="M 43.125 -83.34375 L 43.125 -53.8125 C 41.28125 -54 39.894531 -54.09375 38.96875 -54.09375 C 35.457031 -54.09375 32.820312 -53.050781 31.0625 -50.96875 C 29.3125 -48.882812 28.4375 -46.457031 28.4375 -43.6875 L 28.4375 0 L 3.75 0 L 3.75 -81.265625 L 27.59375 -81.265625 L 27.59375 -70.875 L 27.875 -70.875 C 28.613281 -73.925781 30.507812 -76.695312 33.5625 -79.1875 C 36.613281 -81.6875 39.800781 -83.070312 43.125 -83.34375 Z M 43.125 -83.34375 "/></g></g></g><g fill="#1e1e1e" fill-opacity="1"><g transform="translate(362.676538, 239.686404)"><g><path d="M 32.171875 -83.34375 C 41.515625 -83.34375 48.703125 -80.960938 53.734375 -76.203125 C 58.773438 -71.441406 61.296875 -65.039062 61.296875 -57 L 61.296875 -24.265625 C 61.296875 -16.222656 58.773438 -9.820312 53.734375 -5.0625 C 48.703125 -0.300781 41.515625 2.078125 32.171875 2.078125 C 22.835938 2.078125 15.648438 -0.300781 10.609375 -5.0625 C 5.566406 -9.820312 3.046875 -16.222656 3.046875 -24.265625 L 3.046875 -57 C 3.046875 -65.039062 5.566406 -71.441406 10.609375 -76.203125 C 15.648438 -80.960938 22.835938 -83.34375 32.171875 -83.34375 Z M 27.734375 -63.234375 L 27.734375 -19.6875 C 27.734375 -18.207031 28.148438 -16.984375 28.984375 -16.015625 C 29.816406 -15.046875 30.878906 -14.5625 32.171875 -14.5625 C 33.460938 -14.5625 34.523438 -15.046875 35.359375 -16.015625 C 36.191406 -16.984375 36.609375 -18.207031 36.609375 -19.6875 L 36.609375 -63.234375 C 36.609375 -64.710938 36.191406 -65.9375 35.359375 -66.90625 C 34.523438 -67.882812 33.460938 -68.375 32.171875 -68.375 C 30.597656 -68.375 29.460938 -67.796875 28.765625 -66.640625 C 28.078125 -65.484375 27.734375 -64.347656 27.734375 -63.234375 Z M 27.734375 -63.234375 "/></g></g></g></g></g></svg>