<svg xmlns="http://www.w3.org/2000/svg" xmlns:xlink="http://www.w3.org/1999/xlink" width="1080" zoomAndPan="magnify" viewBox="0 0 810 809.999993" height="1080" preserveAspectRatio="xMidYMid meet" version="1.0"><defs><g/><clipPath id="09e5f318e8"><path d="M 151.179688 248.3125 L 658.820312 248.3125 L 658.820312 538.414062 L 151.179688 538.414062 Z M 151.179688 248.3125 " clip-rule="nonzero"/></clipPath><clipPath id="f3a0cc085c"><path d="M 0.179688 0.3125 L 507.820312 0.3125 L 507.820312 290.414062 L 0.179688 290.414062 Z M 0.179688 0.3125 " clip-rule="nonzero"/></clipPath><clipPath id="55a24088f6"><rect x="0" width="508" y="0" height="291"/></clipPath><clipPath id="028ed29b81"><path d="M 0.480469 97 L 1 97 L 1 98 L 0.480469 98 Z M 0.480469 97 " clip-rule="nonzero"/></clipPath><clipPath id="2ce2fa8910"><path d="M 35 0.121094 L 94 0.121094 L 94 100 L 35 100 Z M 35 0.121094 " clip-rule="nonzero"/></clipPath><clipPath id="1c6c3cb7f1"><rect x="0" width="411" y="0" height="269"/></clipPath></defs><rect x="-81" width="972" fill="#ffffff" y="-80.999999" height="971.999992" fill-opacity="1"/><rect x="-81" width="972" fill="#ffffff" y="-80.999999" height="971.999992" fill-opacity="1"/><g clip-path="url(#09e5f318e8)"><g transform="matrix(1, 0, 0, 1, 151, 248)"><g clip-path="url(#55a24088f6)"><g clip-path="url(#f3a0cc085c)"><path fill="#000000" d="M 0.179688 0.3125 L 507.855469 0.3125 L 507.855469 290.414062 L 0.179688 290.414062 Z M 0.179688 0.3125 " fill-opacity="1" fill-rule="nonzero"/></g></g></g></g><g transform="matrix(1, 0, 0, 1, 186, 279)"><g clip-path="url(#1c6c3cb7f1)"><g clip-path="url(#028ed29b81)"><g fill="#ffffff" fill-opacity="1"><g transform="translate(0.691107, 97.084625)"><g/></g></g></g><g clip-path="url(#2ce2fa8910)"><g fill="#ffffff" fill-opacity="1"><g transform="translate(32.616984, 97.084625)"><g><path d="M 32.03125 -96.875 C 41.59375 -96.875 48.695312 -94.945312 53.34375 -91.09375 C 58 -87.238281 60.328125 -80.304688 60.328125 -70.296875 L 60.328125 -59.9375 L 35.875 -59.9375 L 35.875 -75.078125 C 35.875 -77.296875 35.539062 -78.828125 34.875 -79.671875 C 34.21875 -80.515625 33.269531 -80.9375 32.03125 -80.9375 C 28.925781 -80.9375 27.375 -78.71875 27.375 -74.28125 L 27.375 -21.390625 C 27.375 -19.085938 27.769531 -17.335938 28.5625 -16.140625 C 29.363281 -14.953125 30.519531 -14.359375 32.03125 -14.359375 C 33.707031 -14.359375 34.898438 -14.890625 35.609375 -15.953125 C 36.316406 -17.015625 36.671875 -18.695312 36.671875 -21 L 36.671875 -37.609375 L 31.625 -37.609375 L 31.625 -51.15625 L 61.125 -51.15625 L 61.125 0 L 45.1875 0 L 43.328125 -6.640625 C 41.203125 -3.804688 38.519531 -1.65625 35.28125 -0.1875 C 32.050781 1.269531 28.570312 2 24.84375 2 C 17.050781 2 11.445312 -0.632812 8.03125 -5.90625 C 4.625 -11.1875 2.921875 -17.546875 2.921875 -24.984375 L 2.921875 -68.171875 C 2.921875 -78.273438 5.359375 -85.582031 10.234375 -90.09375 C 15.109375 -94.613281 22.375 -96.875 32.03125 -96.875 Z M 32.03125 -96.875 "/></g></g></g></g><g fill="#ffffff" fill-opacity="1"><g transform="translate(96.672362, 97.084625)"><g><path d="M 41.328125 -79.875 L 41.328125 -51.5625 C 39.554688 -51.738281 38.226562 -51.828125 37.34375 -51.828125 C 33.976562 -51.828125 31.453125 -50.828125 29.765625 -48.828125 C 28.085938 -46.835938 27.25 -44.515625 27.25 -41.859375 L 27.25 0 L 3.59375 0 L 3.59375 -77.875 L 26.4375 -77.875 L 26.4375 -67.90625 L 26.71875 -67.90625 C 27.425781 -70.832031 29.238281 -73.488281 32.15625 -75.875 C 35.082031 -78.269531 38.140625 -79.601562 41.328125 -79.875 Z M 41.328125 -79.875 "/></g></g></g><g fill="#ffffff" fill-opacity="1"><g transform="translate(138.534265, 97.084625)"><g><path d="M 28.96875 -79.875 C 37.476562 -79.875 44.125 -78.253906 48.90625 -75.015625 C 53.6875 -71.785156 56.078125 -65.914062 56.078125 -57.40625 L 56.078125 0 L 33.21875 0 L 33.21875 -4.390625 C 31.007812 -2.171875 28.597656 -0.550781 25.984375 0.46875 C 23.367188 1.488281 20.820312 2 18.34375 2 C 13.195312 2 9.335938 0.425781 6.765625 -2.71875 C 4.203125 -5.863281 2.921875 -9.695312 2.921875 -14.21875 L 2.921875 -26.171875 C 2.921875 -29.191406 3.226562 -31.539062 3.84375 -33.21875 C 4.46875 -34.90625 5.796875 -36.457031 7.828125 -37.875 C 9.867188 -39.289062 13.109375 -40.796875 17.546875 -42.390625 C 21.972656 -44.078125 25.226562 -45.453125 27.3125 -46.515625 C 29.394531 -47.578125 30.765625 -48.570312 31.421875 -49.5 C 32.085938 -50.425781 32.421875 -51.597656 32.421875 -53.015625 L 32.421875 -63.515625 C 32.421875 -64.492188 32.085938 -65.46875 31.421875 -66.4375 C 30.765625 -67.414062 29.769531 -67.90625 28.4375 -67.90625 C 27.289062 -67.90625 26.40625 -67.503906 25.78125 -66.703125 C 25.15625 -65.910156 24.84375 -64.847656 24.84375 -63.515625 L 24.84375 -47.84375 L 2.921875 -47.84375 L 2.921875 -56.75 C 2.921875 -65.25 5.15625 -71.226562 9.625 -74.6875 C 14.101562 -78.144531 20.550781 -79.875 28.96875 -79.875 Z M 24.84375 -25.515625 L 24.84375 -16.875 C 24.84375 -15.90625 25.128906 -14.972656 25.703125 -14.078125 C 26.285156 -13.191406 27.15625 -12.75 28.3125 -12.75 C 29.632812 -12.75 30.648438 -13.191406 31.359375 -14.078125 C 32.066406 -14.972656 32.421875 -15.816406 32.421875 -16.609375 L 32.421875 -37.078125 C 30.296875 -35.742188 28.5 -34.171875 27.03125 -32.359375 C 25.570312 -30.546875 24.84375 -28.265625 24.84375 -25.515625 Z M 24.84375 -25.515625 "/></g></g></g><g fill="#ffffff" fill-opacity="1"><g transform="translate(197.53963, 97.084625)"><g><path d="M 41.859375 -79.875 C 47.347656 -79.875 51.398438 -78.007812 54.015625 -74.28125 C 56.628906 -70.5625 57.9375 -65.691406 57.9375 -59.671875 L 57.9375 0 L 34.28125 0 L 34.28125 -58.609375 C 34.28125 -59.753906 34.015625 -60.925781 33.484375 -62.125 C 32.953125 -63.320312 31.976562 -63.921875 30.5625 -63.921875 C 28.351562 -63.921875 27.25 -62.191406 27.25 -58.734375 L 27.25 0 L 3.59375 0 L 3.59375 -77.875 L 27.25 -77.875 L 27.25 -71.890625 L 27.515625 -71.890625 C 28.753906 -74.191406 30.65625 -76.097656 33.21875 -77.609375 C 35.789062 -79.117188 38.671875 -79.875 41.859375 -79.875 Z M 41.859375 -79.875 "/></g></g></g><g fill="#ffffff" fill-opacity="1"><g transform="translate(0.691107, 229.97933)"><g><path d="M 57.40625 -73.75 L 57.40625 -60.859375 C 57.40625 -53.328125 55.675781 -47.742188 52.21875 -44.109375 C 48.769531 -40.484375 43.941406 -38.671875 37.734375 -38.671875 L 26.578125 -38.671875 L 26.578125 0 L 2.921875 0 L 2.921875 -94.890625 L 35.484375 -94.890625 C 42.484375 -94.890625 47.882812 -93.050781 51.6875 -89.375 C 55.5 -85.695312 57.40625 -80.488281 57.40625 -73.75 Z M 36.671875 -60.0625 L 36.671875 -73.484375 C 36.671875 -77.117188 34.8125 -78.9375 31.09375 -78.9375 L 26.578125 -78.9375 L 26.578125 -54.625 L 31.09375 -54.625 C 34.8125 -54.625 36.671875 -56.4375 36.671875 -60.0625 Z M 36.671875 -60.0625 "/></g></g></g><g fill="#ffffff" fill-opacity="1"><g transform="translate(59.696473, 229.97933)"><g><path d="M 30.828125 -79.875 C 35.703125 -79.875 40.128906 -78.875 44.109375 -76.875 C 48.097656 -74.882812 51.265625 -71.984375 53.609375 -68.171875 C 55.960938 -64.359375 57.140625 -59.84375 57.140625 -54.625 L 57.140625 -37.734375 L 26.578125 -37.734375 L 26.578125 -17.015625 C 26.578125 -13.910156 27.773438 -12.359375 30.171875 -12.359375 C 32.910156 -12.359375 34.28125 -14.085938 34.28125 -17.546875 L 34.28125 -31.765625 L 57.140625 -31.765625 L 57.140625 -23.25 C 57.140625 -15.632812 54.898438 -9.519531 50.421875 -4.90625 C 45.953125 -0.300781 39.421875 2 30.828125 2 C 21.796875 2 14.882812 -0.28125 10.09375 -4.84375 C 5.3125 -9.40625 2.921875 -15.539062 2.921875 -23.25 L 2.921875 -54.625 C 2.921875 -62.414062 5.359375 -68.570312 10.234375 -73.09375 C 15.109375 -77.613281 21.972656 -79.875 30.828125 -79.875 Z M 26.578125 -60.859375 L 26.578125 -50.5 L 34.28125 -50.5 L 34.28125 -60.328125 C 34.28125 -63.785156 32.910156 -65.515625 30.171875 -65.515625 C 27.773438 -65.515625 26.578125 -63.960938 26.578125 -60.859375 Z M 26.578125 -60.859375 "/></g></g></g><g fill="#ffffff" fill-opacity="1"><g transform="translate(118.701838, 229.97933)"><g><path d="M 26.578125 0 L 2.921875 0 L 2.921875 -94.890625 L 26.578125 -94.890625 Z M 26.578125 0 "/></g></g></g><g fill="#ffffff" fill-opacity="1"><g transform="translate(148.204521, 229.97933)"><g><path d="M 30.828125 -79.875 C 39.773438 -79.875 46.660156 -77.585938 51.484375 -73.015625 C 56.316406 -68.453125 58.734375 -62.320312 58.734375 -54.625 L 58.734375 -23.25 C 58.734375 -15.539062 56.316406 -9.40625 51.484375 -4.84375 C 46.660156 -0.28125 39.773438 2 30.828125 2 C 21.878906 2 14.988281 -0.28125 10.15625 -4.84375 C 5.332031 -9.40625 2.921875 -15.539062 2.921875 -23.25 L 2.921875 -54.625 C 2.921875 -62.320312 5.332031 -68.453125 10.15625 -73.015625 C 14.988281 -77.585938 21.878906 -79.875 30.828125 -79.875 Z M 26.578125 -60.59375 L 26.578125 -18.875 C 26.578125 -17.457031 26.972656 -16.28125 27.765625 -15.34375 C 28.566406 -14.414062 29.585938 -13.953125 30.828125 -13.953125 C 32.066406 -13.953125 33.082031 -14.414062 33.875 -15.34375 C 34.675781 -16.28125 35.078125 -17.457031 35.078125 -18.875 L 35.078125 -60.59375 C 35.078125 -62.007812 34.675781 -63.179688 33.875 -64.109375 C 33.082031 -65.046875 32.066406 -65.515625 30.828125 -65.515625 C 29.328125 -65.515625 28.242188 -64.957031 27.578125 -63.84375 C 26.910156 -62.738281 26.578125 -61.65625 26.578125 -60.59375 Z M 26.578125 -60.59375 "/></g></g></g><g fill="#ffffff" fill-opacity="1"><g transform="translate(209.8678, 229.97933)"><g><path d="M 30.03125 -89.828125 L 30.03125 -77.875 L 36.28125 -77.875 L 36.28125 -65.109375 L 30.03125 -65.109375 L 30.03125 -15.6875 C 30.03125 -13.726562 30.914062 -12.75 32.6875 -12.75 L 36.28125 -12.75 L 36.28125 0 L 22.59375 0 C 17.8125 0 14.175781 -0.660156 11.6875 -1.984375 C 9.207031 -3.316406 7.566406 -5.203125 6.765625 -7.640625 C 5.972656 -10.078125 5.578125 -13.332031 5.578125 -17.40625 L 5.578125 -65.109375 L 0.671875 -65.109375 L 0.671875 -77.875 L 5.578125 -77.875 L 5.578125 -89.828125 Z M 30.03125 -89.828125 "/></g></g></g><g fill="#ffffff" fill-opacity="1"><g transform="translate(246.812597, 229.97933)"><g><path d="M 30.828125 -79.875 C 35.703125 -79.875 40.128906 -78.875 44.109375 -76.875 C 48.097656 -74.882812 51.265625 -71.984375 53.609375 -68.171875 C 55.960938 -64.359375 57.140625 -59.84375 57.140625 -54.625 L 57.140625 -37.734375 L 26.578125 -37.734375 L 26.578125 -17.015625 C 26.578125 -13.910156 27.773438 -12.359375 30.171875 -12.359375 C 32.910156 -12.359375 34.28125 -14.085938 34.28125 -17.546875 L 34.28125 -31.765625 L 57.140625 -31.765625 L 57.140625 -23.25 C 57.140625 -15.632812 54.898438 -9.519531 50.421875 -4.90625 C 45.953125 -0.300781 39.421875 2 30.828125 2 C 21.796875 2 14.882812 -0.28125 10.09375 -4.84375 C 5.3125 -9.40625 2.921875 -15.539062 2.921875 -23.25 L 2.921875 -54.625 C 2.921875 -62.414062 5.359375 -68.570312 10.234375 -73.09375 C 15.109375 -77.613281 21.972656 -79.875 30.828125 -79.875 Z M 26.578125 -60.859375 L 26.578125 -50.5 L 34.28125 -50.5 L 34.28125 -60.328125 C 34.28125 -63.785156 32.910156 -65.515625 30.171875 -65.515625 C 27.773438 -65.515625 26.578125 -63.960938 26.578125 -60.859375 Z M 26.578125 -60.859375 "/></g></g></g><g fill="#ffffff" fill-opacity="1"><g transform="translate(305.817962, 229.97933)"><g><path d="M 41.328125 -79.875 L 41.328125 -51.5625 C 39.554688 -51.738281 38.226562 -51.828125 37.34375 -51.828125 C 33.976562 -51.828125 31.453125 -50.828125 29.765625 -48.828125 C 28.085938 -46.835938 27.25 -44.515625 27.25 -41.859375 L 27.25 0 L 3.59375 0 L 3.59375 -77.875 L 26.4375 -77.875 L 26.4375 -67.90625 L 26.71875 -67.90625 C 27.425781 -70.832031 29.238281 -73.488281 32.15625 -75.875 C 35.082031 -78.269531 38.140625 -79.601562 41.328125 -79.875 Z M 41.328125 -79.875 "/></g></g></g><g fill="#ffffff" fill-opacity="1"><g transform="translate(347.679865, 229.97933)"><g><path d="M 30.828125 -79.875 C 39.773438 -79.875 46.660156 -77.585938 51.484375 -73.015625 C 56.316406 -68.453125 58.734375 -62.320312 58.734375 -54.625 L 58.734375 -23.25 C 58.734375 -15.539062 56.316406 -9.40625 51.484375 -4.84375 C 46.660156 -0.28125 39.773438 2 30.828125 2 C 21.878906 2 14.988281 -0.28125 10.15625 -4.84375 C 5.332031 -9.40625 2.921875 -15.539062 2.921875 -23.25 L 2.921875 -54.625 C 2.921875 -62.320312 5.332031 -68.453125 10.15625 -73.015625 C 14.988281 -77.585938 21.878906 -79.875 30.828125 -79.875 Z M 26.578125 -60.59375 L 26.578125 -18.875 C 26.578125 -17.457031 26.972656 -16.28125 27.765625 -15.34375 C 28.566406 -14.414062 29.585938 -13.953125 30.828125 -13.953125 C 32.066406 -13.953125 33.082031 -14.414062 33.875 -15.34375 C 34.675781 -16.28125 35.078125 -17.457031 35.078125 -18.875 L 35.078125 -60.59375 C 35.078125 -62.007812 34.675781 -63.179688 33.875 -64.109375 C 33.082031 -65.046875 32.066406 -65.515625 30.828125 -65.515625 C 29.328125 -65.515625 28.242188 -64.957031 27.578125 -63.84375 C 26.910156 -62.738281 26.578125 -61.65625 26.578125 -60.59375 Z M 26.578125 -60.59375 "/></g></g></g></g></g></svg>