<?xml version="1.0" standalone="no"?>
<!DOCTYPE svg PUBLIC "-//W3C//DTD SVG 20010904//EN"
 "http://www.w3.org/TR/2001/REC-SVG-20010904/DTD/svg10.dtd">
<svg version="1.0" xmlns="http://www.w3.org/2000/svg"
 width="1280.000000pt" height="134.000000pt" viewBox="0 0 1280.000000 134.000000"
 preserveAspectRatio="xMidYMid meet">

<g transform="translate(0.000000,134.000000) scale(0.100000,-0.100000)"
fill="#000000" stroke="none">
<path d="M12337 1126 c-65 -24 -97 -66 -97 -131 0 -69 40 -118 108 -133 61
-14 111 0 150 42 28 31 32 43 32 91 0 46 -4 59 -30 88 -20 23 -45 38 -74 46
-53 13 -42 13 -89 -3z m114 -39 c18 -12 39 -38 47 -58 12 -31 11 -41 -2 -72
-17 -42 -68 -77 -111 -77 -42 0 -94 35 -110 74 -43 103 81 197 176 133z"/>
<path d="M12330 995 c0 -60 3 -75 15 -75 10 0 15 10 15 27 l0 27 28 -27 c28
-27 52 -35 52 -18 0 5 -7 14 -15 21 -19 16 -19 30 -1 30 14 0 26 21 26 45 0
27 -31 45 -76 45 l-44 0 0 -75z m85 25 c0 -9 -11 -16 -27 -18 -23 -3 -28 1
-28 18 0 17 5 21 28 18 16 -2 27 -9 27 -18z"/>
<path d="M1087 1073 c-42 -70 -377 -686 -377 -693 0 -6 24 -10 54 -10 l54 0
41 75 42 75 193 0 193 0 39 -72 39 -73 49 -3 c27 -2 52 0 56 5 5 4 -13 46 -39
93 -26 47 -109 200 -185 340 -145 268 -151 277 -159 263z m99 -365 c24 -48 44
-90 44 -93 0 -3 -61 -5 -135 -5 -87 0 -135 4 -135 10 0 12 24 60 87 178 l45
84 25 -44 c14 -24 45 -82 69 -130z"/>
<path d="M2467 1059 c-8 -13 -31 -55 -52 -94 -21 -38 -100 -184 -176 -322 -77
-139 -139 -257 -139 -263 0 -5 24 -10 54 -10 l54 0 39 72 39 73 195 3 196 2
39 -72 39 -73 49 -3 c27 -2 52 0 56 5 5 4 -9 37 -29 73 -20 36 -104 189 -185
340 -82 151 -152 279 -156 284 -5 4 -15 -2 -23 -15z m87 -310 c36 -69 66 -129
66 -132 0 -4 -61 -7 -135 -7 -87 0 -135 4 -135 10 0 17 129 264 135 258 1 -2
32 -60 69 -129z"/>
<path d="M3167 1059 c-107 -25 -209 -114 -247 -217 -29 -77 -29 -178 0 -254
85 -228 404 -300 596 -134 l38 33 -42 31 -43 30 -49 -33 c-162 -109 -372 -32
-410 149 -19 91 9 176 79 239 94 85 261 84 356 -4 20 -18 21 -17 59 15 46 38
44 45 -30 92 -88 56 -206 77 -307 53z"/>
<path d="M4195 1049 c-158 -51 -256 -196 -242 -360 11 -129 86 -235 207 -293
59 -28 74 -31 160 -31 83 0 103 4 157 29 65 30 146 105 176 163 29 54 41 152
29 223 -38 213 -268 341 -487 269z m254 -114 c180 -99 173 -352 -14 -448 -57
-29 -174 -29 -230 0 -51 27 -84 58 -115 108 -21 34 -25 52 -25 121 0 72 3 86
30 129 33 54 90 98 145 114 60 17 152 7 209 -24z"/>
<path d="M180 714 l0 -345 53 3 52 3 3 123 3 122 142 0 c128 0 147 2 192 24
58 27 78 47 100 100 35 84 12 200 -51 255 -56 50 -115 61 -316 61 l-178 0 0
-346z m385 232 c66 -28 87 -128 39 -185 -33 -40 -77 -51 -206 -51 l-108 0 0
125 0 125 120 0 c82 0 132 -5 155 -14z"/>
<path d="M1580 715 l0 -345 245 0 245 0 0 50 0 50 -192 2 -193 3 -3 293 -2
292 -50 0 -50 0 0 -345z"/>
<path d="M3685 1047 c-3 -6 -4 -161 -3 -342 l3 -330 53 -3 52 -3 0 345 0 346
-50 0 c-32 0 -52 -5 -55 -13z"/>
<path d="M5130 714 l0 -347 168 5 c142 4 176 9 227 28 156 59 228 159 229 315
0 97 -29 170 -93 234 -85 85 -175 111 -383 111 l-148 0 0 -346z m348 230 c109
-36 166 -114 166 -229 0 -159 -92 -234 -295 -243 -98 -4 -106 -3 -110 14 -2
11 -3 121 -1 247 l3 227 93 0 c59 0 112 -6 144 -16z"/>
<path d="M5915 1047 c-3 -6 -4 -161 -3 -342 l3 -330 268 -3 267 -2 0 50 0 50
-215 0 -215 0 0 110 0 110 155 0 155 0 0 50 0 50 -155 0 -155 0 0 85 0 85 215
0 215 0 0 50 0 50 -265 0 c-204 0 -267 -3 -270 -13z"/>
<path d="M6610 715 l0 -345 245 0 245 0 0 50 0 50 -190 0 -190 0 0 295 0 295
-55 0 -55 0 0 -345z"/>
<path d="M7510 714 l0 -346 223 4 c215 3 223 4 266 28 72 41 86 68 86 164 0
74 -3 86 -27 118 -15 19 -41 41 -58 48 l-31 13 29 17 c32 20 62 83 62 131 0
76 -57 140 -140 158 -28 6 -132 11 -230 11 l-180 0 0 -346z m399 231 c31 -16
41 -33 41 -73 0 -32 -7 -43 -40 -65 -20 -14 -49 -17 -162 -17 l-138 0 0 78 c0
43 3 82 7 85 3 4 64 7 135 7 94 0 137 -4 157 -15z m44 -283 c33 -31 42 -81 23
-127 -24 -56 -60 -66 -224 -63 l-137 3 -3 108 -3 108 160 -3 c151 -3 161 -4
184 -26z"/>
<path d="M8250 715 l0 -345 245 0 245 0 0 50 0 50 -192 2 -193 3 -3 293 -2
292 -50 0 -50 0 0 -345z"/>
<path d="M8832 833 c4 -202 7 -234 25 -281 30 -75 62 -113 124 -147 51 -28 60
-30 169 -30 103 0 120 3 164 25 64 33 110 88 135 163 19 54 21 85 21 279 l0
218 -54 0 -55 0 -3 -227 c-3 -214 -4 -231 -25 -270 -15 -27 -39 -52 -68 -69
-41 -23 -53 -26 -123 -23 -95 5 -141 31 -175 99 -20 42 -22 61 -25 268 l-4
222 -55 0 -55 0 4 -227z"/>
<path d="M9655 1047 c-3 -6 -4 -161 -3 -342 l3 -330 53 -3 52 -3 0 235 c0 130
3 236 8 236 4 0 48 -75 97 -167 182 -335 169 -315 182 -296 7 9 68 117 135
241 l123 225 5 -234 5 -234 50 0 50 0 3 343 2 342 -53 0 -52 0 -34 -62 c-56
-104 -192 -350 -219 -397 l-25 -44 -32 57 c-17 31 -79 144 -136 251 l-104 195
-53 0 c-33 0 -54 -5 -57 -13z"/>
<path d="M10620 715 l0 -345 82 0 81 0 -86 -52 c-146 -90 -179 -116 -175 -141
4 -28 20 -28 233 2 296 41 542 68 820 91 208 17 735 33 868 27 126 -6 129 -6
153 18 30 30 30 53 0 93 -26 36 -425 472 -492 538 -58 58 -115 72 -195 50
l-61 -17 -29 26 c-55 46 -117 56 -320 53 l-184 -3 -3 -190 -3 -190 -122 -69
c-67 -38 -147 -84 -178 -103 -55 -34 -56 -34 -169 -31 l-113 3 -1 108 -2 107
158 0 158 0 0 50 0 50 -158 0 -159 0 2 30 c1 17 2 55 3 85 l2 55 215 0 215 0
0 50 0 50 -270 0 -270 0 0 -345z m1100 230 c29 -15 40 -35 20 -35 -10 0 -259
-137 -274 -151 -6 -5 -18 -9 -28 -9 -16 0 -18 10 -18 98 0 54 3 102 7 105 3 4
64 7 135 7 96 0 137 -4 158 -15z"/>
</g>
</svg>
